<svg version="1.1" x="0px" y="0px"
	 width="16px" height="16px" viewBox="0 0 512 512" >
  <path d="M338.752,99.482c-65.965-65.974-173.306-65.974-239.277,0c-65.967,65.964-65.967,173.305,0,239.269
    c63.708,63.712,165.99,65.879,232.342,6.544l13.413,13.413c-3.34,8.56-1.59,18.623,5.311,25.528l70.782,70.782
    c9.305,9.31,24.397,9.305,33.696,0c9.31-9.299,9.31-24.387,0-33.696l-70.777-70.772c-6.905-6.899-16.988-8.65-25.533-5.311
    l-13.413-13.423C404.636,265.465,402.463,163.188,338.752,99.482z M119.698,318.539c-54.819-54.819-54.819-144.015,0-198.834
    c54.819-54.83,144.017-54.819,198.836,0s54.819,144.02,0,198.839S174.517,373.358,119.698,318.539z"/>
</svg>
