<?xml version="1.0" standalone="no"?>
<!DOCTYPE svg PUBLIC "-//W3C//DTD SVG 20010904//EN"
 "http://www.w3.org/TR/2001/REC-SVG-20010904/DTD/svg10.dtd">
<svg version="1.0" xmlns="http://www.w3.org/2000/svg"
 width="259.000000pt" height="259.000000pt" viewBox="0 0 259.000000 259.000000"
 preserveAspectRatio="xMidYMid meet">
<metadata>
Created by potrace 1.14, written by Peter Selinger 2001-2017
</metadata>
<g transform="translate(0.000000,259.000000) scale(0.100000,-0.100000)"
fill="#000000" stroke="none">
<path d="M785 2506 c-366 -70 -651 -335 -747 -697 -22 -83 -22 -92 -25 -898
-3 -758 -3 -815 14 -833 16 -18 42 -19 887 -16 l871 3 80 23 c343 99 592 351
677 688 22 86 23 105 23 514 0 409 -1 428 -23 514 -85 337 -335 590 -677 687
-77 22 -95 23 -545 25 -353 2 -482 0 -535 -10z m1127 -643 c17 -15 18 -43 18
-482 0 -290 -4 -480 -10 -503 -6 -21 -25 -56 -43 -80 -55 -72 -177 -118 -222
-85 -20 15 -20 27 -20 577 0 544 1 562 19 576 30 22 233 20 258 -3z m-975
-163 c10 -19 12 -130 11 -498 -3 -456 -4 -474 -22 -488 -30 -22 -233 -20 -258
3 -17 15 -18 44 -18 496 0 436 2 482 17 499 15 16 30 18 137 16 117 -3 121 -4
133 -28z m487 -136 c14 -13 16 -66 16 -420 0 -487 15 -444 -150 -444 -165 0
-150 -43 -150 444 0 354 2 407 16 420 23 23 245 23 268 0z"/>
</g>
</svg>
